<?xml version="1.0" encoding="utf-8"?>
<!-- Generator: Adobe Illustrator 27.5.0, SVG Export Plug-In . SVG Version: 6.00 Build 0)  -->
<svg version="1.1" id="_x32_" xmlns="http://www.w3.org/2000/svg" xmlns:xlink="http://www.w3.org/1999/xlink" x="0px" y="0px"
	 viewBox="0 0 512 512" style="enable-background:new 0 0 512 512;" xml:space="preserve">
<style type="text/css">
	.st0{fill:#FFFFFF;}
</style>
<path class="st0" d="M206.1,64c38,0,73.6,14.8,100.5,41.6c26.8,26.8,41.6,62.5,41.6,100.5s-14.8,73.6-41.6,100.5
	c-26.8,26.8-62.5,41.6-100.5,41.6s-73.6-14.8-100.5-41.6C78.8,279.8,64,244.1,64,206.1s14.8-73.6,41.6-100.5
	C132.5,78.8,168.2,64,206.1,64L206.1,64z M206.1,0C92.3,0,0,92.3,0,206.1s92.3,206.1,206.1,206.1S412.2,320,412.2,206.1
	S320,0,206.1,0L206.1,0z"/>
<path class="st0" d="M483.9,512c-7.2,0-14.4-2.7-19.8-8.2L320.7,360.4c-11-11-11-28.7,0-39.7c11-11,28.7-11,39.7,0l143.4,143.4
	c11,11,11,28.7,0,39.7C498.3,509.3,491.1,512,483.9,512z"/>
</svg>
